<svg id="Calque_1" data-name="Calque 1" xmlns="http://www.w3.org/2000/svg" viewBox="0 0 96 96"><defs><style>.cls-1{fill:#da465d;}.cls-2{fill:#fff;}.cls-3{fill:#0c7d81;}.cls-4{fill:#ded121;}</style></defs><path class="cls-1" d="M11.19,61.52a14.4,14.4,0,0,1,2.78,0,13.08,13.08,0,0,0,3-.08l.15,0c1.08-.24,1.55-.7,1.4-1.38a1.18,1.18,0,0,0-.63-.81,11.38,11.38,0,0,0-1.94-.7c-.95-.28-1.75-.55-2.42-.8a20.6,20.6,0,0,1-2-.9A6.87,6.87,0,0,1,9,54.54a8.74,8.74,0,0,1-1.35-3.07,7.81,7.81,0,0,1-.1-2.54,7.94,7.94,0,0,1,1-3A7.46,7.46,0,0,1,11,43.32a9.25,9.25,0,0,1,3.24-1.42,9.07,9.07,0,0,1,5.43.29,4.36,4.36,0,0,1,2.91,3.22,2.31,2.31,0,0,1-.3,1.87,2.69,2.69,0,0,1-1.7,1.11l-.19,0L16.71,49l-.19,0a2.69,2.69,0,0,0-.94.48.72.72,0,0,0-.29.74.91.91,0,0,0,.31.45,2.17,2.17,0,0,0,.5.36,17.5,17.5,0,0,0,2.34,1c1.14.42,2,.76,2.62,1A18.09,18.09,0,0,1,23,54a10.23,10.23,0,0,1,1.63,1.09,7,7,0,0,1,1.19,1.28,4.61,4.61,0,0,1,.76,1.76,8.66,8.66,0,0,1-.09,4.6,7.74,7.74,0,0,1-2.5,3.54A12.49,12.49,0,0,1,19,68.56l-.57.12a17,17,0,0,1-3.32.4,9.29,9.29,0,0,1-2.88-.3A4.89,4.89,0,0,1,10.59,68a3.52,3.52,0,0,1-.86-1,4.07,4.07,0,0,1-.51-1.26,4.63,4.63,0,0,1-.05-1.85,3,3,0,0,1,.73-1.55A2.27,2.27,0,0,1,11.19,61.52Z"/><path class="cls-2" d="M72.56,68.1a5.07,5.07,0,0,1-1-.79,3.45,3.45,0,0,1-.72-1,16.64,16.64,0,0,1-3.37,2,8.59,8.59,0,0,1-3,.47,7.43,7.43,0,0,1-2.78-.54,7.33,7.33,0,0,1-2.37-1.53,7.23,7.23,0,0,1-1.58-2.33,6.9,6.9,0,0,1-.58-2.81,10.22,10.22,0,0,1,.38-2.67A7.58,7.58,0,0,1,59,56.23,10,10,0,0,1,61.52,54a12.46,12.46,0,0,1,3.76-1.55,17.25,17.25,0,0,1,4.3-.55,4.42,4.42,0,0,0-.64-2.71,2.12,2.12,0,0,0-1.65-.66,8.28,8.28,0,0,0-2.84.76,8.39,8.39,0,0,1-2.62.76,2.2,2.2,0,0,1-1.76-.76A3.35,3.35,0,0,1,59.43,47,3.1,3.1,0,0,1,60,45.25a5.47,5.47,0,0,1,1.67-1.49,11.53,11.53,0,0,1,3-1.18,14.38,14.38,0,0,1,3.68-.5,8.66,8.66,0,0,1,5.19,1.55,7.43,7.43,0,0,1,2.9,4.18,19.4,19.4,0,0,1,.62,5.42L77,55.28c-.07,1.4-.11,2.91-.11,4.53A15.13,15.13,0,0,0,78,65.66l.35.72a2.23,2.23,0,0,1,.27.79c0,.49-.33.9-1,1.22a5.22,5.22,0,0,1-2.3.48,5.72,5.72,0,0,1-1.51-.21A4.11,4.11,0,0,1,72.56,68.1ZM68,57.41a5.14,5.14,0,0,0-2.15.47,3.22,3.22,0,0,0-1.47,1.2,2.75,2.75,0,0,0-.45,1.43,1.7,1.7,0,0,0,.58,1.3,1.92,1.92,0,0,0,1.32.52,4.4,4.4,0,0,0,2.07-.5,3.92,3.92,0,0,0,1.53-1.44V57.8C69.22,57.54,68.74,57.41,68,57.41Z"/><path class="cls-3" d="M39.75,57.14l-.15-.08-.19.12q-.12.47-.24,1.26c-.07.53-.17,1.79-.27,3.79a23.77,23.77,0,0,1-.44,4.09,3.94,3.94,0,0,1-.74,1.58,1.45,1.45,0,0,1-1.14.51A4.38,4.38,0,0,1,33,67.15a6.89,6.89,0,0,1-1.24-3.93c-.08-.78-.17-2-.26-3.74s-.16-4.63-.23-8.73-.13-6.79-.21-8.06a1.23,1.23,0,0,1,.25-.71,1,1,0,0,1,.68-.45,11.21,11.21,0,0,1,2.21-.23,9.36,9.36,0,0,1,2.26.29A3,3,0,0,1,38,42.66a7.94,7.94,0,0,1,1.47,5.18,20.62,20.62,0,0,1-.11,2.06c.56-.52,1.44-1.41,2.61-2.68s1.9-2,2.19-2.32A11.3,11.3,0,0,1,46.78,43a5.59,5.59,0,0,1,2.5-.71,2.62,2.62,0,0,1,1.92.85A2.72,2.72,0,0,1,52,45.06a3.9,3.9,0,0,1-.37,1.43,7.81,7.81,0,0,1-1.57,2.17,40.9,40.9,0,0,1-3.21,3c-1.34,1.14-2.18,1.88-2.52,2.25a23.49,23.49,0,0,0,3.53,5c1.78,2.07,2.78,3.24,3,3.53l.11.11a6,6,0,0,1,1.67,3.26,1.86,1.86,0,0,1-.54,1.31,3.1,3.1,0,0,1-1.59.83,8.66,8.66,0,0,1-2.05.26,7.5,7.5,0,0,1-2.6-.39,5,5,0,0,1-2.11-1.57,16.06,16.06,0,0,1-2.11-4.12l-.19-.51Q40.45,58.66,39.75,57.14Z"/><path class="cls-4" d="M82.31,34.11c-.27-.21-.42-.44-.28-.73a.58.58,0,0,1,.76-.27.67.67,0,0,1,.3.59A.62.62,0,0,1,82.31,34.11Z"/><path class="cls-4" d="M88.52,29.31A2.54,2.54,0,0,0,86.78,29a.79.79,0,0,1-1-.69c-.13-.46-.07-1.15-.73-1.34a1.09,1.09,0,0,0-.53.85c-.2.82-.25,1.73-1.16,2.17L83,30c-.33-.05-.55.13-.78.43a2.16,2.16,0,0,0,1.56.67l.13.2h0a2.15,2.15,0,0,0,.14.26c-.14.76-.45,1.54.18,2.26.87-.42.65-1.6,1.54-1.87.73,0,1.28.61,2,.6.46-.83-.43-1.29-.48-1.89C87.53,30,88.51,30.14,88.52,29.31Z"/><path class="cls-4" d="M90.12,33.64v0Z"/><path class="cls-4" d="M80.67,30c.9.34.6.87.32,1.31a31.5,31.5,0,0,1-2,3c-1.08,1.39-2.11,2.83-3.19,4.23-.61.79-1.23.74-1.89-.29A21,21,0,0,1,80.67,30Z"/><path class="cls-4" d="M78.33,40.52c.87-2.43,5.18-6,6.7-5.52a.93.93,0,0,1-.11,1.28,29.68,29.68,0,0,1-5.22,4.6C79.15,41.27,78.65,41.28,78.33,40.52Z"/></svg>