<svg width="800" height="800" viewBox="0 0 800 800" fill="none" xmlns="http://www.w3.org/2000/svg">
<g clip-path="url(#clip0_29_38)">
<path d="M550 100V175H250V100H50V300H250V225H425.585C409.06 246.517 400.07 272.87 400 300V500C399.976 519.884 392.066 538.946 378.006 553.006C363.946 567.066 344.884 574.976 325 575H250V500H50V700H250V625H325C358.139 624.959 389.91 611.776 413.343 588.343C436.776 564.91 449.959 533.139 450 500V300C449.994 290.155 451.928 280.406 455.69 271.308C459.453 262.211 464.97 253.944 471.928 246.979C478.886 240.015 487.148 234.489 496.242 230.718C505.335 226.947 515.083 225.004 524.928 225H550V300H750V100H550ZM200 250H100V150H200V250ZM200 650H100V550H200V650ZM700 250H600V150H700V250Z" fill="white"/>
</g>
<defs>
<clipPath id="clip0_29_38">
<rect width="800" height="800" fill="white"/>
</clipPath>
</defs>
</svg>
