<svg width="800" height="800" viewBox="0 0 800 800" fill="none" xmlns="http://www.w3.org/2000/svg">
<g clip-path="url(#clip0_29_31)">
<path d="M650 500C620.333 500 591.332 508.797 566.664 525.28C541.997 541.762 522.771 565.189 511.418 592.598C500.065 620.006 497.094 650.166 502.882 679.264C508.67 708.361 522.956 735.088 543.934 756.066C564.912 777.044 591.639 791.33 620.736 797.118C649.834 802.906 679.994 799.935 707.402 788.582C734.811 777.229 758.238 758.003 774.72 733.336C791.203 708.668 800 679.667 800 650C799.956 610.231 784.138 572.104 756.017 543.983C727.896 515.862 689.769 500.044 650 500ZM650 700C640.111 700 630.444 697.068 622.221 691.573C613.999 686.079 607.59 678.27 603.806 669.134C600.022 659.998 599.031 649.945 600.961 640.245C602.89 630.546 607.652 621.637 614.645 614.645C621.637 607.652 630.546 602.89 640.245 600.961C649.945 599.031 659.998 600.022 669.134 603.806C678.27 607.59 686.079 613.999 691.573 622.221C697.067 630.444 700 640.111 700 650C699.974 663.253 694.698 675.956 685.327 685.327C675.956 694.698 663.253 699.974 650 700Z" fill="white"/>
<path d="M214.648 285.352C219.286 290.015 224.799 293.718 230.87 296.248C236.941 298.777 243.452 300.084 250.029 300.093C256.606 300.103 263.12 298.814 269.198 296.301C275.277 293.788 280.799 290.101 285.45 285.45C290.101 280.8 293.788 275.277 296.301 269.199C298.814 263.12 300.102 256.606 300.093 250.029C300.084 243.452 298.777 236.941 296.248 230.87C293.718 224.799 290.015 219.286 285.352 214.648L220.703 150L285.352 85.3518C290.015 80.714 293.718 75.2016 296.248 69.1303C298.777 63.0591 300.084 56.5484 300.093 49.9713C300.102 43.3942 298.814 36.8799 296.301 30.8016C293.788 24.7234 290.101 19.2007 285.45 14.5499C280.799 9.89919 275.277 6.21182 269.198 3.69908C263.12 1.18635 256.606 -0.102364 250.029 -0.0932133C243.452 -0.0840627 236.941 1.22277 230.87 3.75241C224.799 6.28205 219.286 9.98477 214.648 14.6484L150 79.2968L85.3516 14.6484C75.9668 5.31568 63.2642 0.0851098 50.0288 0.103524C36.7934 0.121938 24.1054 5.38783 14.7465 14.7467C5.38771 24.1055 0.121816 36.7935 0.103402 50.0289C0.0849877 63.2643 5.31556 75.9669 14.6483 85.3518L79.2966 150L14.6483 214.648C9.98465 219.286 6.28193 224.799 3.75229 230.87C1.22265 236.941 -0.0841847 243.452 -0.0933354 250.029C-0.102486 256.606 1.18623 263.12 3.69896 269.199C6.2117 275.277 9.89907 280.8 14.5498 285.45C19.2006 290.101 24.7233 293.788 30.8015 296.301C36.8797 298.814 43.394 300.103 49.9712 300.093C56.5483 300.084 63.059 298.777 69.1302 296.248C75.2014 293.718 80.7139 290.015 85.3516 285.352L150 220.703L214.648 285.352Z" fill="white"/>
<path d="M698.37 169.073L714.648 185.352C724.033 194.685 736.736 199.915 749.971 199.897C763.207 199.878 775.895 194.612 785.253 185.254C794.612 175.895 799.878 163.207 799.897 149.971C799.915 136.736 794.684 124.033 785.352 114.648L685.352 14.6485C680.71 10.0046 675.199 6.32069 669.133 3.80729C663.067 1.2939 656.566 0.000244141 650 0.000244141C643.434 0.000244141 636.933 1.2939 630.867 3.80729C624.801 6.32069 619.29 10.0046 614.648 14.6485L514.648 114.648C505.316 124.033 500.085 136.736 500.103 149.971C500.122 163.207 505.388 175.895 514.747 185.254C524.105 194.612 536.793 199.878 550.029 199.897C563.264 199.915 575.967 194.685 585.352 185.352L598.462 172.241C590.649 302.582 516.803 325.991 406.738 358.398C270.117 398.633 100 448.633 100 750C100 763.261 105.268 775.979 114.645 785.355C124.021 794.732 136.739 800 150 800C163.261 800 175.979 794.732 185.355 785.355C194.732 775.979 200 763.261 200 750C200 523.438 303.711 492.969 434.961 454.297C549.353 420.612 689.672 377.423 698.37 169.073Z" fill="white"/>
</g>
<defs>
<clipPath id="clip0_29_31">
<rect width="800" height="800" fill="white"/>
</clipPath>
</defs>
</svg>
