<svg width="800" height="800" viewBox="0 0 800 800" fill="none" xmlns="http://www.w3.org/2000/svg">
<path d="M100 766.667C91.1594 766.667 82.6809 763.155 76.4297 756.904C70.1785 750.652 66.6666 742.174 66.6666 733.333V66.6667C66.6666 57.8262 70.1785 49.3477 76.4297 43.0965C82.6809 36.8453 91.1594 33.3334 100 33.3334C108.841 33.3334 117.319 36.8453 123.57 43.0965C129.821 49.3477 133.333 57.8262 133.333 66.6667V100H266.667C275.507 100 283.986 103.512 290.237 109.763C296.488 116.014 300 124.493 300 133.333C300 142.174 296.488 150.652 290.237 156.904C283.986 163.155 275.507 166.667 266.667 166.667H133.333V366.667H400C408.84 366.667 417.319 370.179 423.57 376.43C429.821 382.681 433.333 391.159 433.333 400C433.333 408.841 429.821 417.319 423.57 423.57C417.319 429.821 408.84 433.333 400 433.333H133.333V633.333H200C208.841 633.333 217.319 636.845 223.57 643.096C229.821 649.348 233.333 657.826 233.333 666.667C233.333 675.507 229.821 683.986 223.57 690.237C217.319 696.488 208.841 700 200 700H133.333V733.333C133.333 742.174 129.821 750.652 123.57 756.904C117.319 763.155 108.841 766.667 100 766.667ZM700 100H433.333V66.6667C433.333 57.8262 429.821 49.3477 423.57 43.0965C417.319 36.8453 408.84 33.3334 400 33.3334C391.159 33.3334 382.681 36.8453 376.43 43.0965C370.179 49.3477 366.667 57.8262 366.667 66.6667V133.333V200C366.667 208.841 370.179 217.319 376.43 223.57C382.681 229.821 391.159 233.333 400 233.333C408.84 233.333 417.319 229.821 423.57 223.57C429.821 217.319 433.333 208.841 433.333 200V166.667H700C708.84 166.667 717.319 163.155 723.57 156.904C729.821 150.652 733.333 142.174 733.333 133.333C733.333 124.493 729.821 116.014 723.57 109.763C717.319 103.512 708.84 100 700 100ZM700 366.667H566.667V333.333C566.667 324.493 563.155 316.014 556.904 309.763C550.652 303.512 542.174 300 533.333 300C524.493 300 516.014 303.512 509.763 309.763C503.512 316.014 500 324.493 500 333.333V400V466.667C500 475.507 503.512 483.986 509.763 490.237C516.014 496.488 524.493 500 533.333 500C542.174 500 550.652 496.488 556.904 490.237C563.155 483.986 566.667 475.507 566.667 466.667V433.333H700C708.84 433.333 717.319 429.821 723.57 423.57C729.821 417.319 733.333 408.841 733.333 400C733.333 391.159 729.821 382.681 723.57 376.43C717.319 370.179 708.84 366.667 700 366.667ZM700 633.333H366.667V600C366.667 591.159 363.155 582.681 356.904 576.43C350.652 570.179 342.174 566.667 333.333 566.667C324.493 566.667 316.014 570.179 309.763 576.43C303.512 582.681 300 591.159 300 600V666.667V733.333C300 742.174 303.512 750.652 309.763 756.904C316.014 763.155 324.493 766.667 333.333 766.667C342.174 766.667 350.652 763.155 356.904 756.904C363.155 750.652 366.667 742.174 366.667 733.333V700H700C708.84 700 717.319 696.488 723.57 690.237C729.821 683.986 733.333 675.507 733.333 666.667C733.333 657.826 729.821 649.348 723.57 643.096C717.319 636.845 708.84 633.333 700 633.333Z" fill="#0D8589"/>
</svg>
