<svg width="800" height="800" viewBox="0 0 800 800" fill="none" xmlns="http://www.w3.org/2000/svg">
<path d="M300 300H500V500H300V300Z" fill="white"/>
<path d="M666.667 200C666.667 163.233 636.767 133.333 600 133.333H533.333V66.6667H466.667V133.333H333.333V66.6667H266.667V133.333H200C163.233 133.333 133.333 163.233 133.333 200V266.667H66.6667V333.333H133.333V466.667H66.6667V533.333H133.333V600C133.333 636.767 163.233 666.667 200 666.667H266.667V733.333H333.333V666.667H466.667V733.333H533.333V666.667H600C636.767 666.667 666.667 636.767 666.667 600V533.333H733.333V466.667H666.667V333.333H733.333V266.667H666.667V200ZM200 600V200H600L600.067 600H200Z" fill="white"/>
</svg>
