<svg width="800" height="800" viewBox="0 0 800 800" fill="none" xmlns="http://www.w3.org/2000/svg">
<path d="M400 300C374.212 299.88 348.948 307.275 327.295 321.28C305.641 335.286 288.537 355.295 278.071 378.864C267.605 402.433 264.232 428.54 268.363 453.995C272.494 479.45 283.951 503.151 301.333 522.2C261.141 540.955 227.127 570.776 203.276 608.17C179.425 645.564 166.726 688.981 166.667 733.333C166.667 742.174 170.179 750.652 176.43 756.904C182.681 763.155 191.159 766.667 200 766.667H600C608.841 766.667 617.319 763.155 623.57 756.904C629.821 750.652 633.333 742.174 633.333 733.333C633.274 688.981 620.575 645.564 596.724 608.17C572.873 570.776 538.859 540.955 498.667 522.2C516.049 503.151 527.506 479.45 531.637 453.995C535.768 428.54 532.395 402.433 521.929 378.864C511.463 355.295 494.359 335.286 472.705 321.28C451.052 307.275 425.788 299.88 400 300ZM400 366.667C413.185 366.667 426.075 370.577 437.038 377.902C448.001 385.227 456.546 395.639 461.592 407.821C466.638 420.003 467.958 433.407 465.386 446.339C462.813 459.271 456.464 471.15 447.14 480.474C437.817 489.797 425.938 496.147 413.006 498.719C400.074 501.291 386.67 499.971 374.488 494.925C362.306 489.879 351.894 481.335 344.569 470.371C337.243 459.408 333.333 446.519 333.333 433.333C333.333 415.652 340.357 398.695 352.86 386.193C365.362 373.69 382.319 366.667 400 366.667ZM563.333 700H236.667C244.317 662.324 264.758 628.451 294.525 604.121C324.292 579.791 361.555 566.5 400 566.5C438.445 566.5 475.708 579.791 505.475 604.121C535.242 628.451 555.683 662.324 563.333 700ZM400 233.333C391.159 233.333 382.681 229.821 376.43 223.57C370.179 217.319 366.667 208.841 366.667 200V66.6667C366.667 57.8262 370.179 49.3477 376.43 43.0965C382.681 36.8453 391.159 33.3334 400 33.3334C408.841 33.3334 417.319 36.8453 423.57 43.0965C429.821 49.3477 433.333 57.8262 433.333 66.6667V200C433.333 208.841 429.821 217.319 423.57 223.57C417.319 229.821 408.841 233.333 400 233.333ZM553.333 296.667C546.781 296.64 540.382 294.682 534.935 291.038C529.489 287.394 525.238 282.226 522.713 276.18C520.187 270.133 519.5 263.477 520.737 257.042C521.974 250.607 525.08 244.679 529.667 240L623.933 145.7C627.008 142.516 630.686 139.977 634.753 138.23C638.82 136.483 643.194 135.563 647.62 135.525C652.046 135.487 656.435 136.33 660.532 138.006C664.628 139.682 668.35 142.157 671.48 145.287C674.61 148.417 677.085 152.138 678.761 156.235C680.437 160.331 681.28 164.721 681.242 169.147C681.203 173.573 680.284 177.947 678.537 182.014C676.79 186.08 674.25 189.758 671.067 192.833L576.667 287.033C570.453 293.179 562.073 296.639 553.333 296.667ZM270.333 287.033C264.082 293.282 255.605 296.793 246.767 296.793C237.928 296.793 229.451 293.282 223.2 287.033L128.933 192.733C122.861 186.447 119.502 178.027 119.578 169.287C119.653 160.547 123.159 152.186 129.339 146.006C135.52 139.826 143.88 136.32 152.62 136.244C161.36 136.168 169.78 139.528 176.067 145.6L270.333 240C276.552 246.247 280.043 254.702 280.043 263.517C280.043 272.331 276.552 280.787 270.333 287.033ZM766.667 433.333C766.667 442.174 763.155 450.652 756.904 456.904C750.652 463.155 742.174 466.667 733.333 466.667H616.667C607.826 466.667 599.348 463.155 593.096 456.904C586.845 450.652 583.333 442.174 583.333 433.333C583.333 424.493 586.845 416.014 593.096 409.763C599.348 403.512 607.826 400 616.667 400H733.333C742.174 400 750.652 403.512 756.904 409.763C763.155 416.014 766.667 424.493 766.667 433.333ZM33.3333 433.333C33.3333 424.493 36.8452 416.014 43.0965 409.763C49.3477 403.512 57.8261 400 66.6667 400H183.333C192.174 400 200.652 403.512 206.904 409.763C213.155 416.014 216.667 424.493 216.667 433.333C216.667 442.174 213.155 450.652 206.904 456.904C200.652 463.155 192.174 466.667 183.333 466.667H66.6667C57.8261 466.667 49.3477 463.155 43.0965 456.904C36.8452 450.652 33.3333 442.174 33.3333 433.333Z" fill="#0D8589"/>
</svg>
